<?xml version="1.0" standalone="no"?>
<!DOCTYPE svg PUBLIC "-//W3C//DTD SVG 1.0//EN" "http://www.w3.org/TR/2001/REC-SVG-20010904/DTD/svg10.dtd">
<svg xmlns="http://www.w3.org/2000/svg" xmlns:xlink="http://www.w3.org/1999/xlink" id="body_1" width="142" height="92">

<g transform="matrix(2 0 0 2 0 0)">
	<g>
        <path transform="matrix(1 0 0 1 -50.5289 -95.74633)"  d="M56.81541 100.70309C 56.81541 98.44937 58.64241 96.62237 60.89613 96.62237L60.89613 96.62237L111.50879 96.62237C 113.76251 96.62237 115.58951 98.44937 115.58951 100.70309L115.58951 100.70309L115.58951 131.55333C 115.58951 133.80705 113.76251 135.63405 111.50879 135.63405L111.50879 135.63405L60.89613 135.63405C 58.64241 135.63405 56.81541 133.80705 56.81541 131.55333L56.81541 131.55333L56.81541 100.70309z" stroke="#000000" stroke-width="1.08113" fill="none" />
        <path transform="matrix(1 0 0 1 -50.5289 -95.74633)"  d="M60.42358 100.6676L111.98128 100.6676L111.98128 130.03114L60.42358 130.03114z" stroke="#000000" stroke-width="1.03118" fill="red" />
        <path d="M0.631721 40.2549L0.631721 41.7247C 0.631721 43.5129 2.08296 44.9649 3.9121 44.9649L3.9121 44.9649L67.4009 44.9649C 69.23 44.9649 70.7154 43.5129 70.7154 41.7247L70.7154 41.7247L70.7154 40.2549L0.631721 40.2549z" stroke="#000000" stroke-width="1.08113" fill="red" />
        <path transform="matrix(1 0 0 1 -50.5289 -95.74633)"  d="M50.5289 135.785L56.1712 132.15L115.929 132.15L121.828 135.66L50.5289 135.785z" stroke="none" fill="black" fill-rule="nonzero" />
        <path transform="matrix(1 0 0 1 -50.5289 -95.74633)"  d="M85.28092 98.75633C 85.28092 98.27168 85.682816 97.8788 86.17857 97.8788C 86.67433 97.8788 87.076225 98.27168 87.076225 98.75633C 87.076225 99.24098 86.67433 99.633865 86.17857 99.633865C 85.682816 99.633865 85.28092 99.24098 85.28092 98.75633" stroke="none" fill="black" fill-rule="nonzero" />
	</g>
</g>
</svg>